<?xml version="1.0" encoding="UTF-8"?>
<svg xmlns="http://www.w3.org/2000/svg" xmlns:xlink="http://www.w3.org/1999/xlink" width="367.685" height="70.08" viewBox="0 0 367.685 70.08">
  <defs>
    <clipPath id="clip-path">
      <rect id="Rectángulo_5049" data-name="Rectángulo 5049" width="367.685" height="70.08" fill="none"></rect>
    </clipPath>
  </defs>
  <g id="Grupo_15065" data-name="Grupo 15065" transform="translate(0 0)">
    <g id="Grupo_15064" data-name="Grupo 15064" transform="translate(0 0)" clip-path="url(#clip-path)">
      <path id="Trazado_715" data-name="Trazado 715" d="M66.92,20.5c-.086-.206-.159-.414-.248-.62A31.367,31.367,0,0,0,50.2,3.4c-.3-.128-.6-.246-.9-.368A34.857,34.857,0,0,0,39.24.259l1.752,5.707A29.661,29.661,0,0,1,61.886,47.7l-1.194-1.225c-2.748-2.822-6.894-7.4-10.188-11.094a38.309,38.309,0,0,1-7.718-13.235c-.485-1.435-1.005-2.99-1.526-4.569l-.018.007-.266-.862C39.84,13.262,35.836.02,35.836.02c-.266,0-.529-.02-.8-.02A35.016,35.016,0,0,0,2.81,48.761l4.08-4.312A29.659,29.659,0,0,1,32.552,5.461l-.478,1.7c-1.187,4.206-3.517,10.821-5.313,15.767a38.335,38.335,0,0,1-6.974,11.922c-2.206,2.565-7.3,8.294-7.3,8.294l-.007.009c-1.125,1.236-8.194,8.675-8.194,8.675.018.035.033.071.053.1a35.041,35.041,0,0,0,58.739,4.126l-5.893-1.271a29.638,29.638,0,0,1-46.478-2.768l1.628-.412c4.77-1.214,12.918-3.09,18.043-4.257a20.952,20.952,0,0,1,9.306,0C44.81,48.516,65,53.215,65,53.215A35.061,35.061,0,0,0,66.92,20.5M35.035,11.517l1.936,6.866H33.1ZM14.626,46.861l4.228-4.339L20.5,45.371ZM45.5,44.339l-5.069-1.287a21.944,21.944,0,0,0-10.8,0l-5.072,1.287-2.782-4.815.749-.771a38.29,38.29,0,0,0,9.435-16.336H38.1a38.329,38.329,0,0,0,9.432,16.338l.749.769Zm4.062,1.032,1.643-2.848,4.228,4.341Z" transform="translate(0 0)" fill="#9a001d"></path>
      <path id="Trazado_716" data-name="Trazado 716" d="M58.435,16.64a8.827,8.827,0,0,0-5.865-2.306c-4.939,0-7.938,3.754-7.938,8.5,0,3.787,2.208,7.707,7.938,7.707a7.665,7.665,0,0,0,5.207-1.845V24.611h-5.9V20.724h9.882v9.718a11.485,11.485,0,0,1-9.191,4.15c-8.662,0-12.188-5.7-12.188-11.76,0-6.489,4.053-12.484,12.188-12.484a12.189,12.189,0,0,1,8.567,3.524Z" transform="translate(49.054 12.57)" fill="#fff"></path>
      <path id="Trazado_717" data-name="Trazado 717" d="M75.516,33.723H70.345l-6.719-7.709H59.441v7.709H55.094V10.63c3.656,0,7.313.035,10.969.035,5.435.031,8.3,3.654,8.3,7.641,0,3.163-1.451,6.358-5.831,7.247l6.983,7.873ZM59.441,14.716V22.1h6.622a3.6,3.6,0,0,0,3.953-3.69,3.614,3.614,0,0,0-3.953-3.69Z" transform="translate(66.923 12.912)" fill="#fff"></path>
      <path id="Trazado_718" data-name="Trazado 718" d="M88.935,10.66V23.871c0,6.817-4.184,10.309-9.982,10.309-5.532,0-10.243-3.362-10.243-10.309V10.66h4.316V23.871c0,4.15,2.37,6.356,5.96,6.356s5.634-2.405,5.634-6.356V10.66Z" transform="translate(83.463 12.949)" fill="#fff"></path>
      <path id="Trazado_719" data-name="Trazado 719" d="M94.215,26.937H87.692v6.784H83.345V10.663c3.623,0,7.247-.033,10.87-.033,11.266,0,11.3,16.307,0,16.307M87.692,22.95h6.522c5.568,0,5.535-8.17,0-8.17H87.692Z" transform="translate(101.24 12.912)" fill="#fff"></path>
      <path id="Trazado_720" data-name="Trazado 720" d="M119.9,22.562c-.066,5.962-3.723,11.924-11.827,11.924S96.218,28.654,96.218,22.593s3.887-12.157,11.858-12.157c7.94,0,11.891,6.1,11.827,12.126m-19.4.1c.1,3.787,2.142,7.84,7.577,7.84s7.477-4.084,7.543-7.873c.066-3.887-2.108-8.234-7.543-8.234s-7.674,4.381-7.577,8.268" transform="translate(116.877 12.677)" fill="#fff"></path>
      <path id="Trazado_721" data-name="Trazado 721" d="M138.852,22.56c-.066,5.96-3.723,11.924-11.824,11.924s-11.86-5.831-11.86-11.893,3.887-12.154,11.86-12.154c7.938,0,11.891,6.095,11.824,12.123m-19.4.1c.1,3.787,2.139,7.84,7.577,7.84s7.477-4.084,7.543-7.873c.066-3.887-2.111-8.234-7.543-8.234s-7.676,4.381-7.577,8.268m40.729,4.514h-6.522v6.786H149.31V10.9c3.623,0,7.247-.035,10.87-.035,11.266,0,11.3,16.307,0,16.307m-6.522-3.986h6.522c5.566,0,5.535-8.17,0-8.17h-6.522Zm42.376,10.772H178.772V10.9h17.262v4.215H183.089v5.3h12.482v4.051H183.089v5.2h12.945Zm31.755,0h-5.171L215.9,26.248h-4.184v7.709h-4.347V10.864c3.656,0,7.313.035,10.969.035,5.435.031,8.3,3.654,8.3,7.641,0,3.163-1.451,6.358-5.831,7.247l6.983,7.873ZM211.714,14.951V22.33h6.622a3.6,3.6,0,0,0,3.953-3.69,3.613,3.613,0,0,0-3.953-3.69Z" transform="translate(139.896 12.678)" fill="#9a001d"></path>
    </g>
  </g>
</svg>
