<svg xmlns="http://www.w3.org/2000/svg" width="81" height="81" viewBox="0 0 81 81"><path id="Trazado_761" data-name="Trazado 761" d="M77.347,23.691c-.1-.238-.184-.479-.287-.717A36.254,36.254,0,0,0,58.018,3.929c-.346-.148-.694-.284-1.039-.425A40.288,40.288,0,0,0,45.355.3l2.025,6.6a34.282,34.282,0,0,1,24.149,48.24l-1.38-1.416C66.972,50.459,62.18,45.163,58.374,40.9a44.278,44.278,0,0,1-8.921-15.3c-.561-1.659-1.162-3.456-1.764-5.281l-.02.008-.307-1C46.048,15.328,41.42.023,41.42.023,41.113.018,40.808,0,40.5,0A40.472,40.472,0,0,0,3.248,56.359l4.715-4.984A34.281,34.281,0,0,1,37.624,6.312l-.553,1.963C35.7,13.137,33.006,20.783,30.93,26.5a44.308,44.308,0,0,1-8.061,13.779c-2.55,2.964-8.437,9.586-8.437,9.586l-.008.01C13.124,51.3,4.953,59.9,4.953,59.9c.02.041.038.082.061.12a40.5,40.5,0,0,0,67.891,4.769l-6.812-1.469a34.256,34.256,0,0,1-53.72-3.2l1.881-.476c5.514-1.4,14.931-3.571,20.855-4.92a24.216,24.216,0,0,1,10.756,0c5.926,1.349,29.266,6.781,29.266,6.781a40.524,40.524,0,0,0,2.214-37.816M40.494,13.311l2.237,7.935H38.256ZM16.9,54.163l4.887-5.015,1.9,3.292Zm35.689-2.916L46.734,49.76a25.364,25.364,0,0,0-12.487,0l-5.862,1.487L25.171,45.68l.865-.891a44.257,44.257,0,0,0,10.9-18.881h7.1a44.3,44.3,0,0,0,10.9,18.884l.865.888Zm4.695,1.193,1.9-3.292,4.887,5.017Z" fill="#9a001d"></path></svg>